<?xml version="1.0" encoding="utf-8"?>
<!-- Generator: Adobe Illustrator 24.0.0, SVG Export Plug-In . SVG Version: 6.00 Build 0)  -->
<svg version="1.1" id="Layer_1" xmlns="http://www.w3.org/2000/svg" xmlns:xlink="http://www.w3.org/1999/xlink" x="0px" y="0px"
	 viewBox="0 0 20 18" style="enable-background:new 0 0 20 18;" xml:space="preserve">
<style type="text/css">
	.st0{fill-opacity:0;}
	.st1{fill:#FFFFFF;}
</style>
<g>
	<g>
		<rect x="-2" y="-3" class="st0" width="24" height="24"/>
		<path class="st1" d="M17,4h-3V2.5C14,1.1,12.9,0,11.5,0h-3C7.1,0,6,1.1,6,2.5V4H3C1.3,4,0,5.3,0,7v8c0,1.7,1.3,3,3,3h14
			c1.7,0,3-1.3,3-3V7C20,5.3,18.7,4,17,4z M8,2.5C8,2.2,8.2,2,8.5,2h3C11.8,2,12,2.2,12,2.5V4H8V2.5z M18,15c0,0.6-0.4,1-1,1H3
			c-0.6,0-1-0.4-1-1V7c0-0.6,0.4-1,1-1h14c0.6,0,1,0.4,1,1V15z"/>
		<path class="st1" d="M10,7.5c-1.9,0-3.5,1.6-3.5,3.5s1.6,3.5,3.5,3.5s3.5-1.6,3.5-3.5S11.9,7.5,10,7.5L10,7.5z M10,12.5
			c-0.8,0-1.5-0.7-1.5-1.5S9.2,9.5,10,9.5s1.5,0.7,1.5,1.5S10.8,12.5,10,12.5z"/>
	</g>
</g>
</svg>
