<?xml version="1.0" encoding="utf-8"?>
<!-- Generator: Adobe Illustrator 24.0.0, SVG Export Plug-In . SVG Version: 6.00 Build 0)  -->
<svg version="1.1" id="Layer_1" xmlns="http://www.w3.org/2000/svg" xmlns:xlink="http://www.w3.org/1999/xlink" x="0px" y="0px"
	 viewBox="0 0 69 69" style="enable-background:new 0 0 69 69;" xml:space="preserve">
<style type="text/css">
	.st0{fill:#979797;}
</style>
<title>ic_next</title>
<desc>Created with Sketch.</desc>
<g>
	<path class="st0" d="M51.8,20.4h-3.5v-6.6C48.4,6.2,42.2,0,34.5,0S20.6,6.2,20.6,13.9v6.6h-3.5c-5.7,0-10.4,4.7-10.4,10.4v27.8
		c0,5.7,4.7,10.4,10.4,10.4h34.7c5.7,0,10.4-4.7,10.4-10.4V30.8C62.3,25.1,57.6,20.4,51.8,20.4z M27.6,13.9c-0.1-3.9,3-7.2,6.9-7.3
		c3.9,0.1,7,3.4,6.9,7.3v6.6H27.6V13.9z M55.3,58.6c0,1.9-1.6,3.5-3.5,3.5H17.2c-1.9,0-3.5-1.6-3.5-3.5V30.8c0-1.9,1.6-3.5,3.5-3.5
		h34.7c1.9,0,3.5,1.6,3.5,3.5V58.6z"/>
	<path class="st0" d="M34.5,34.3c-5.7,0-10.4,4.7-10.4,10.4s4.7,10.4,10.4,10.4s10.4-4.7,10.4-10.4S40.2,34.3,34.5,34.3z M34.5,48.2
		c-1.9,0-3.5-1.6-3.5-3.5c0-1.9,1.6-3.5,3.5-3.5s3.5,1.6,3.5,3.5C38,46.6,36.4,48.2,34.5,48.2z"/>
</g>
</svg>
